<mxfile host="65bd71144e">
    <diagram id="0bZepSF3yu7qsKWIXzAk" name="Page-1">
        <mxGraphModel dx="1980" dy="1179" grid="1" gridSize="10" guides="1" tooltips="1" connect="1" arrows="1" fold="1" page="1" pageScale="1" pageWidth="850" pageHeight="1100" background="none" math="0" shadow="0">
            <root>
                <mxCell id="0"/>
                <mxCell id="1" parent="0"/>
                <mxCell id="90" value="&lt;b&gt;&lt;font style=&quot;font-size: 26px;&quot;&gt;IP Protocol&amp;nbsp; &amp;nbsp;&amp;nbsp;&lt;/font&gt;&lt;/b&gt;" style="rounded=1;whiteSpace=wrap;html=1;shadow=0;labelBackgroundColor=none;fillStyle=solid;fontFamily=Consolas;fontSize=21;verticalAlign=bottom;align=right;fillColor=#F5F7F7;fontColor=#050505;" parent="1" vertex="1">
                    <mxGeometry x="980" y="32" width="540" height="372" as="geometry"/>
                </mxCell>
                <mxCell id="2" value="&amp;nbsp; &amp;nbsp;&lt;u style=&quot;font-size: 20px;&quot;&gt;PacketSniffer:&lt;/u&gt;" style="rounded=1;whiteSpace=wrap;html=1;fillColor=#C26336;align=left;verticalAlign=top;fontFamily=Consolas;fontSize=20;" parent="1" vertex="1">
                    <mxGeometry x="21" y="556" width="1060" height="410" as="geometry"/>
                </mxCell>
                <mxCell id="3" value="&amp;nbsp; &amp;nbsp;&lt;u style=&quot;font-size: 20px;&quot;&gt;ObserverPublisher:&lt;/u&gt;" style="rounded=1;whiteSpace=wrap;html=1;fillColor=#C26336;align=left;verticalAlign=top;fontFamily=Consolas;fontSize=20;" parent="1" vertex="1">
                    <mxGeometry x="50" y="50" width="390" height="420" as="geometry"/>
                </mxCell>
                <mxCell id="7" style="edgeStyle=orthogonalEdgeStyle;html=1;exitX=0;exitY=0.5;exitDx=0;exitDy=0;entryX=1;entryY=0.5;entryDx=0;entryDy=0;fontFamily=Consolas;fontSize=20;" parent="1" source="4" target="10" edge="1">
                    <mxGeometry relative="1" as="geometry">
                        <mxPoint x="550" y="182.5000000000001" as="targetPoint"/>
                    </mxGeometry>
                </mxCell>
                <mxCell id="4" value="observer" style="rounded=1;whiteSpace=wrap;html=1;fontFamily=Consolas;fontSize=20;fillColor=#C26336;" parent="1" vertex="1">
                    <mxGeometry x="590" y="80" width="120" height="60" as="geometry"/>
                </mxCell>
                <mxCell id="8" style="edgeStyle=orthogonalEdgeStyle;html=1;exitX=0;exitY=0.5;exitDx=0;exitDy=0;entryX=1;entryY=0.5;entryDx=0;entryDy=0;fontFamily=Consolas;fontSize=20;" parent="1" source="5" target="10" edge="1">
                    <mxGeometry relative="1" as="geometry">
                        <mxPoint x="550" y="182.5000000000001" as="targetPoint"/>
                        <Array as="points">
                            <mxPoint x="550" y="183"/>
                            <mxPoint x="550" y="183"/>
                        </Array>
                    </mxGeometry>
                </mxCell>
                <mxCell id="5" value="observer" style="rounded=1;whiteSpace=wrap;html=1;fontFamily=Consolas;fontSize=20;fillColor=#C26336;" parent="1" vertex="1">
                    <mxGeometry x="590" y="152.5" width="120" height="60" as="geometry"/>
                </mxCell>
                <mxCell id="9" style="edgeStyle=orthogonalEdgeStyle;html=1;exitX=0;exitY=0.5;exitDx=0;exitDy=0;entryX=1;entryY=0.5;entryDx=0;entryDy=0;fontFamily=Consolas;fontSize=20;" parent="1" source="6" target="10" edge="1">
                    <mxGeometry relative="1" as="geometry">
                        <mxPoint x="550" y="182.5000000000001" as="targetPoint"/>
                    </mxGeometry>
                </mxCell>
                <mxCell id="6" value="observer" style="rounded=1;whiteSpace=wrap;html=1;fontFamily=Consolas;fontSize=20;fillColor=#C26336;" parent="1" vertex="1">
                    <mxGeometry x="590" y="230" width="120" height="60" as="geometry"/>
                </mxCell>
                <mxCell id="10" value=".add_observer" style="rounded=1;whiteSpace=wrap;html=1;fontFamily=Consolas;fontSize=17;fillColor=#A3532D;shadow=1;" parent="1" vertex="1">
                    <mxGeometry x="347.06" y="165" width="130" height="35" as="geometry"/>
                </mxCell>
                <mxCell id="11" value="" style="endArrow=classic;html=1;fontFamily=Consolas;fontSize=20;exitX=0;exitY=0.5;exitDx=0;exitDy=0;" parent="1" source="10" target="13" edge="1">
                    <mxGeometry width="50" height="50" relative="1" as="geometry">
                        <mxPoint x="110" y="260" as="sourcePoint"/>
                        <mxPoint x="150" y="210" as="targetPoint"/>
                    </mxGeometry>
                </mxCell>
                <mxCell id="13" value="observers" style="swimlane;fontStyle=0;childLayout=stackLayout;horizontal=1;startSize=30;horizontalStack=0;resizeParent=1;resizeParentMax=0;resizeLast=0;collapsible=1;marginBottom=0;whiteSpace=wrap;html=1;shadow=1;fontFamily=Consolas;fontSize=20;fillColor=#a3532d;strokeColor=#000000;" parent="1" vertex="1">
                    <mxGeometry x="153" y="86.5" width="140" height="120" as="geometry"/>
                </mxCell>
                <mxCell id="14" value="First one" style="text;strokeColor=none;fillColor=none;align=left;verticalAlign=middle;spacingLeft=4;spacingRight=4;overflow=hidden;points=[[0,0.5],[1,0.5]];portConstraint=eastwest;rotatable=0;whiteSpace=wrap;html=1;shadow=1;fontFamily=Consolas;fontSize=20;" parent="13" vertex="1">
                    <mxGeometry y="30" width="140" height="30" as="geometry"/>
                </mxCell>
                <mxCell id="15" value="Second one" style="text;strokeColor=none;fillColor=none;align=left;verticalAlign=middle;spacingLeft=4;spacingRight=4;overflow=hidden;points=[[0,0.5],[1,0.5]];portConstraint=eastwest;rotatable=0;whiteSpace=wrap;html=1;shadow=1;fontFamily=Consolas;fontSize=20;" parent="13" vertex="1">
                    <mxGeometry y="60" width="140" height="30" as="geometry"/>
                </mxCell>
                <mxCell id="16" value="Third one" style="text;strokeColor=none;fillColor=none;align=left;verticalAlign=middle;spacingLeft=4;spacingRight=4;overflow=hidden;points=[[0,0.5],[1,0.5]];portConstraint=eastwest;rotatable=0;whiteSpace=wrap;html=1;shadow=1;fontFamily=Consolas;fontSize=20;" parent="13" vertex="1">
                    <mxGeometry y="90" width="140" height="30" as="geometry"/>
                </mxCell>
                <mxCell id="19" value="" style="html=1;verticalLabelPosition=bottom;labelBackgroundColor=#ffffff;verticalAlign=top;shadow=0;dashed=0;strokeWidth=2;shape=mxgraph.ios7.misc.loading_circle;fillStyle=solid;strokeColor=#660066;fontFamily=Consolas;fontSize=27;fontColor=#030202;fillColor=#843BA8;rotation=0;" parent="1" vertex="1">
                    <mxGeometry x="347.06" y="300.5" width="90" height="90" as="geometry"/>
                </mxCell>
                <mxCell id="17" value=".notify_all" style="rounded=1;whiteSpace=wrap;html=1;fontFamily=Consolas;fontSize=17;fillColor=#A3532D;shadow=1;" parent="1" vertex="1">
                    <mxGeometry x="280" y="328" width="120" height="35" as="geometry"/>
                </mxCell>
                <mxCell id="20" value=".add_datum" style="rounded=1;whiteSpace=wrap;html=1;fontFamily=Consolas;fontSize=17;fillColor=#A3532D;shadow=1;" parent="1" vertex="1">
                    <mxGeometry x="120" y="450" width="107" height="35" as="geometry"/>
                </mxCell>
                <mxCell id="21" value="" style="aspect=fixed;html=1;points=[];align=center;image;fontSize=12;image=img/lib/azure2/general/Storage_Queue.svg;fillStyle=solid;strokeColor=#C26336;fillColor=#C26336;direction=south;imageBackground=none;" parent="1" vertex="1">
                    <mxGeometry x="100" y="275" width="114.56" height="141" as="geometry"/>
                </mxCell>
                <mxCell id="22" value="" style="endArrow=classic;html=1;fontFamily=Consolas;fontSize=17;curved=1;exitX=0.5;exitY=0;exitDx=0;exitDy=0;entryX=0.998;entryY=0.501;entryDx=0;entryDy=0;entryPerimeter=0;" parent="1" source="20" target="21" edge="1">
                    <mxGeometry width="50" height="50" relative="1" as="geometry">
                        <mxPoint x="260" y="480" as="sourcePoint"/>
                        <mxPoint x="310" y="430" as="targetPoint"/>
                    </mxGeometry>
                </mxCell>
                <mxCell id="23" value="data_queue" style="text;html=1;strokeColor=none;fillColor=none;align=center;verticalAlign=middle;whiteSpace=wrap;rounded=0;shadow=1;fillStyle=solid;fontFamily=Consolas;fontSize=17;horizontal=0;" parent="1" vertex="1">
                    <mxGeometry x="60" y="280.5" width="30" height="110" as="geometry"/>
                </mxCell>
                <mxCell id="24" value="" style="endArrow=classic;html=1;fontFamily=Consolas;fontSize=17;curved=1;exitX=0.097;exitY=-0.001;exitDx=0;exitDy=0;entryX=0;entryY=0.5;entryDx=0;entryDy=0;exitPerimeter=0;" parent="1" source="21" target="17" edge="1">
                    <mxGeometry width="50" height="50" relative="1" as="geometry">
                        <mxPoint x="363.5" y="460" as="sourcePoint"/>
                        <mxPoint x="337.16544" y="420.71799999999996" as="targetPoint"/>
                    </mxGeometry>
                </mxCell>
                <mxCell id="25" value="" style="endArrow=classic;html=1;fontFamily=Consolas;fontSize=17;curved=1;entryX=0.25;entryY=0;entryDx=0;entryDy=0;exitX=0.496;exitY=1.004;exitDx=0;exitDy=0;exitPerimeter=0;" parent="1" source="16" target="17" edge="1">
                    <mxGeometry width="50" height="50" relative="1" as="geometry">
                        <mxPoint x="337.16544" y="279.5770000000001" as="sourcePoint"/>
                        <mxPoint x="150" y="298.75" as="targetPoint"/>
                    </mxGeometry>
                </mxCell>
                <mxCell id="26" value="" style="endArrow=classic;html=1;fontFamily=Consolas;fontSize=17;curved=1;exitX=0.5;exitY=1;exitDx=0;exitDy=0;entryX=1;entryY=0.5;entryDx=0;entryDy=0;" parent="1" source="17" target="6" edge="1">
                    <mxGeometry width="50" height="50" relative="1" as="geometry">
                        <mxPoint x="470" y="440" as="sourcePoint"/>
                        <mxPoint x="520" y="390" as="targetPoint"/>
                        <Array as="points">
                            <mxPoint x="340" y="480"/>
                            <mxPoint x="700" y="370"/>
                            <mxPoint x="780" y="260"/>
                        </Array>
                    </mxGeometry>
                </mxCell>
                <mxCell id="27" value="" style="endArrow=classic;html=1;fontFamily=Consolas;fontSize=17;curved=1;exitX=0.5;exitY=1;exitDx=0;exitDy=0;entryX=1;entryY=0.5;entryDx=0;entryDy=0;" parent="1" source="17" target="5" edge="1">
                    <mxGeometry width="50" height="50" relative="1" as="geometry">
                        <mxPoint x="340" y="362.9999999999999" as="sourcePoint"/>
                        <mxPoint x="710" y="260" as="targetPoint"/>
                        <Array as="points">
                            <mxPoint x="340" y="500"/>
                            <mxPoint x="770" y="363"/>
                            <mxPoint x="780" y="180"/>
                        </Array>
                    </mxGeometry>
                </mxCell>
                <mxCell id="28" value="" style="endArrow=classic;html=1;fontFamily=Consolas;fontSize=17;curved=1;exitX=0.5;exitY=1;exitDx=0;exitDy=0;entryX=1;entryY=0.5;entryDx=0;entryDy=0;" parent="1" source="17" target="4" edge="1">
                    <mxGeometry width="50" height="50" relative="1" as="geometry">
                        <mxPoint x="340" y="362.9999999999999" as="sourcePoint"/>
                        <mxPoint x="710" y="260" as="targetPoint"/>
                        <Array as="points">
                            <mxPoint x="330" y="490"/>
                            <mxPoint x="660" y="420"/>
                            <mxPoint x="810" y="300"/>
                            <mxPoint x="800" y="100"/>
                        </Array>
                    </mxGeometry>
                </mxCell>
                <mxCell id="31" value="._packet_handler" style="rounded=1;whiteSpace=wrap;html=1;shadow=0;fillStyle=solid;strokeColor=#000000;fontFamily=Consolas;fontSize=17;fillColor=#a3532d;" parent="1" vertex="1">
                    <mxGeometry x="251" y="616" width="170" height="60" as="geometry"/>
                </mxCell>
                <mxCell id="32" value="" style="html=1;verticalLabelPosition=bottom;labelBackgroundColor=#ffffff;verticalAlign=top;shadow=0;dashed=0;strokeWidth=2;shape=mxgraph.ios7.misc.loading_circle;fillStyle=solid;strokeColor=#660066;fontFamily=Consolas;fontSize=27;fontColor=#030202;fillColor=#843BA8;rotation=-180;" parent="1" vertex="1">
                    <mxGeometry x="25" y="787" width="90" height="90" as="geometry"/>
                </mxCell>
                <mxCell id="34" style="html=1;exitX=1;exitY=0.5;exitDx=0;exitDy=0;entryX=0.25;entryY=1;entryDx=0;entryDy=0;fontFamily=Consolas;fontSize=17;" parent="1" source="33" target="31" edge="1">
                    <mxGeometry relative="1" as="geometry"/>
                </mxCell>
                <mxCell id="33" value="sniff_thread" style="rounded=1;whiteSpace=wrap;html=1;fontFamily=Consolas;fontSize=17;fillColor=#A3532D;shadow=1;" parent="1" vertex="1">
                    <mxGeometry x="46" y="826" width="120" height="35" as="geometry"/>
                </mxCell>
                <mxCell id="36" value="" style="endArrow=classic;html=1;fontFamily=Consolas;fontSize=17;exitX=0.25;exitY=0;exitDx=0;exitDy=0;entryX=0.5;entryY=1;entryDx=0;entryDy=0;" parent="1" source="31" target="20" edge="1">
                    <mxGeometry width="50" height="50" relative="1" as="geometry">
                        <mxPoint x="470" y="870" as="sourcePoint"/>
                        <mxPoint x="520" y="820" as="targetPoint"/>
                    </mxGeometry>
                </mxCell>
                <mxCell id="38" value="packets" style="swimlane;fontStyle=0;childLayout=stackLayout;horizontal=1;startSize=30;horizontalStack=0;resizeParent=1;resizeParentMax=0;resizeLast=0;collapsible=1;marginBottom=0;whiteSpace=wrap;html=1;shadow=0;fillStyle=solid;strokeColor=#000000;fontFamily=Consolas;fontSize=17;fillColor=#a3532d;" parent="1" vertex="1">
                    <mxGeometry x="461" y="606" width="140" height="150" as="geometry"/>
                </mxCell>
                <mxCell id="39" value="Packet 1" style="text;strokeColor=none;fillColor=none;align=left;verticalAlign=middle;spacingLeft=4;spacingRight=4;overflow=hidden;points=[[0,0.5],[1,0.5]];portConstraint=eastwest;rotatable=0;whiteSpace=wrap;html=1;shadow=0;fillStyle=solid;fontFamily=Consolas;fontSize=17;" parent="38" vertex="1">
                    <mxGeometry y="30" width="140" height="30" as="geometry"/>
                </mxCell>
                <mxCell id="40" value="Packet 2" style="text;strokeColor=none;fillColor=none;align=left;verticalAlign=middle;spacingLeft=4;spacingRight=4;overflow=hidden;points=[[0,0.5],[1,0.5]];portConstraint=eastwest;rotatable=0;whiteSpace=wrap;html=1;shadow=0;fillStyle=solid;fontFamily=Consolas;fontSize=17;" parent="38" vertex="1">
                    <mxGeometry y="60" width="140" height="30" as="geometry"/>
                </mxCell>
                <mxCell id="41" value="..." style="text;strokeColor=none;fillColor=none;align=left;verticalAlign=middle;spacingLeft=4;spacingRight=4;overflow=hidden;points=[[0,0.5],[1,0.5]];portConstraint=eastwest;rotatable=0;whiteSpace=wrap;html=1;shadow=0;fillStyle=solid;fontFamily=Consolas;fontSize=17;" parent="38" vertex="1">
                    <mxGeometry y="90" width="140" height="30" as="geometry"/>
                </mxCell>
                <mxCell id="42" value="Packet 100" style="text;strokeColor=none;fillColor=none;align=left;verticalAlign=middle;spacingLeft=4;spacingRight=4;overflow=hidden;points=[[0,0.5],[1,0.5]];portConstraint=eastwest;rotatable=0;whiteSpace=wrap;html=1;shadow=0;fillStyle=solid;fontFamily=Consolas;fontSize=17;" parent="38" vertex="1">
                    <mxGeometry y="120" width="140" height="30" as="geometry"/>
                </mxCell>
                <mxCell id="43" style="html=1;exitX=1;exitY=0.5;exitDx=0;exitDy=0;fontFamily=Consolas;fontSize=17;" parent="1" source="31" target="38" edge="1">
                    <mxGeometry relative="1" as="geometry">
                        <mxPoint x="175.9999999999999" y="853.5" as="sourcePoint"/>
                        <mxPoint x="303.5" y="686" as="targetPoint"/>
                    </mxGeometry>
                </mxCell>
                <mxCell id="44" value="" style="endArrow=classic;html=1;fontFamily=Consolas;fontSize=17;exitX=1;exitY=0.5;exitDx=0;exitDy=0;entryX=0;entryY=0.5;entryDx=0;entryDy=0;" parent="1" source="40" target="45" edge="1">
                    <mxGeometry width="50" height="50" relative="1" as="geometry">
                        <mxPoint x="671" y="506" as="sourcePoint"/>
                        <mxPoint x="721" y="456" as="targetPoint"/>
                    </mxGeometry>
                </mxCell>
                <mxCell id="45" value="._flush_packets" style="rounded=1;whiteSpace=wrap;html=1;shadow=0;fillStyle=solid;strokeColor=#000000;fontFamily=Consolas;fontSize=17;fillColor=#a3532d;" parent="1" vertex="1">
                    <mxGeometry x="634" y="656" width="170" height="60" as="geometry"/>
                </mxCell>
                <mxCell id="46" value="packets.db" style="shape=datastore;whiteSpace=wrap;html=1;shadow=0;fillStyle=solid;strokeColor=#000000;fontFamily=Consolas;fontSize=17;fillColor=#a3532d;verticalAlign=top;" parent="1" vertex="1">
                    <mxGeometry x="841" y="576" width="180" height="230" as="geometry"/>
                </mxCell>
                <mxCell id="47" value="" style="endArrow=classic;html=1;fontFamily=Consolas;fontSize=17;entryX=0;entryY=0.5;entryDx=0;entryDy=0;exitX=1;exitY=0.5;exitDx=0;exitDy=0;" parent="1" source="45" target="46" edge="1">
                    <mxGeometry width="50" height="50" relative="1" as="geometry">
                        <mxPoint x="731" y="876" as="sourcePoint"/>
                        <mxPoint x="781" y="826" as="targetPoint"/>
                    </mxGeometry>
                </mxCell>
                <mxCell id="48" value="._ip_filter" style="rounded=1;whiteSpace=wrap;html=1;shadow=0;fillStyle=solid;strokeColor=#000000;fontFamily=Consolas;fontSize=17;fillColor=#a3532d;" parent="1" vertex="1">
                    <mxGeometry x="51" y="661" width="170" height="60" as="geometry"/>
                </mxCell>
                <mxCell id="49" style="html=1;exitX=0.935;exitY=-0.003;exitDx=0;exitDy=0;entryX=0.5;entryY=1;entryDx=0;entryDy=0;fontFamily=Consolas;fontSize=17;exitPerimeter=0;" parent="1" source="33" target="48" edge="1">
                    <mxGeometry relative="1" as="geometry">
                        <mxPoint x="303.5" y="686" as="sourcePoint"/>
                        <mxPoint x="175.9999999999999" y="853.5" as="targetPoint"/>
                    </mxGeometry>
                </mxCell>
                <mxCell id="50" value=".__iter__" style="rounded=1;whiteSpace=wrap;html=1;shadow=0;fillStyle=solid;strokeColor=#000000;fontFamily=Consolas;fontSize=17;fillColor=#a3532d;" parent="1" vertex="1">
                    <mxGeometry x="390" y="926" width="170" height="60" as="geometry"/>
                </mxCell>
                <mxCell id="51" value="" style="endArrow=classic;html=1;fontFamily=Consolas;fontSize=17;entryX=0.498;entryY=1.004;entryDx=0;entryDy=0;entryPerimeter=0;exitX=0.5;exitY=0;exitDx=0;exitDy=0;" parent="1" source="50" target="42" edge="1">
                    <mxGeometry width="50" height="50" relative="1" as="geometry">
                        <mxPoint x="411" y="906" as="sourcePoint"/>
                        <mxPoint x="461" y="856" as="targetPoint"/>
                    </mxGeometry>
                </mxCell>
                <mxCell id="52" value="" style="endArrow=classic;html=1;fontFamily=Consolas;fontSize=17;entryX=-0.001;entryY=0.885;entryDx=0;entryDy=0;entryPerimeter=0;exitX=1;exitY=0.25;exitDx=0;exitDy=0;" parent="1" source="54" target="46" edge="1">
                    <mxGeometry width="50" height="50" relative="1" as="geometry">
                        <mxPoint x="443.05999999999995" y="936" as="sourcePoint"/>
                        <mxPoint x="540.7199999999999" y="766.1199999999999" as="targetPoint"/>
                    </mxGeometry>
                </mxCell>
                <mxCell id="54" value=".get_packet(int)" style="rounded=1;whiteSpace=wrap;html=1;shadow=0;fillStyle=solid;strokeColor=#000000;fontFamily=Consolas;fontSize=17;fillColor=#a3532d;" parent="1" vertex="1">
                    <mxGeometry x="591" y="801" width="170" height="60" as="geometry"/>
                </mxCell>
                <mxCell id="56" value="" style="endArrow=classic;html=1;fontFamily=Consolas;fontSize=17;entryX=0.25;entryY=1;entryDx=0;entryDy=0;exitX=0.75;exitY=0;exitDx=0;exitDy=0;" parent="1" source="50" target="54" edge="1">
                    <mxGeometry width="50" height="50" relative="1" as="geometry">
                        <mxPoint x="771" y="825.9999999999998" as="sourcePoint"/>
                        <mxPoint x="850.8199999999999" y="789.55" as="targetPoint"/>
                    </mxGeometry>
                </mxCell>
                <mxCell id="81" style="edgeStyle=none;html=1;fontFamily=Consolas;fontSize=17;" parent="1" source="58" target="71" edge="1">
                    <mxGeometry relative="1" as="geometry"/>
                </mxCell>
                <mxCell id="58" value="packets" style="shape=table;startSize=30;container=1;collapsible=0;childLayout=tableLayout;fontStyle=1;align=center;shadow=0;fillStyle=solid;strokeColor=#000000;fontFamily=Consolas;fontSize=17;fillColor=#A32A77;" parent="1" vertex="1">
                    <mxGeometry x="851" y="686" width="160" height="100" as="geometry"/>
                </mxCell>
                <mxCell id="59" value="" style="shape=tableRow;horizontal=0;startSize=0;swimlaneHead=0;swimlaneBody=0;top=0;left=0;bottom=0;right=0;collapsible=0;dropTarget=0;fillColor=none;points=[[0,0.5],[1,0.5]];portConstraint=eastwest;shadow=0;fillStyle=solid;strokeColor=#000000;fontFamily=Consolas;fontSize=17;" parent="58" vertex="1">
                    <mxGeometry y="30" width="160" height="23" as="geometry"/>
                </mxCell>
                <mxCell id="60" value="" style="shape=partialRectangle;html=1;whiteSpace=wrap;connectable=0;fillColor=none;top=0;left=0;bottom=0;right=0;overflow=hidden;shadow=0;fillStyle=solid;strokeColor=#000000;fontFamily=Consolas;fontSize=17;" parent="59" vertex="1">
                    <mxGeometry width="53" height="23" as="geometry">
                        <mxRectangle width="53" height="23" as="alternateBounds"/>
                    </mxGeometry>
                </mxCell>
                <mxCell id="61" value="" style="shape=partialRectangle;html=1;whiteSpace=wrap;connectable=0;fillColor=none;top=0;left=0;bottom=0;right=0;overflow=hidden;shadow=0;fillStyle=solid;strokeColor=#000000;fontFamily=Consolas;fontSize=17;" parent="59" vertex="1">
                    <mxGeometry x="53" width="54" height="23" as="geometry">
                        <mxRectangle width="54" height="23" as="alternateBounds"/>
                    </mxGeometry>
                </mxCell>
                <mxCell id="62" value="" style="shape=partialRectangle;html=1;whiteSpace=wrap;connectable=0;fillColor=none;top=0;left=0;bottom=0;right=0;overflow=hidden;shadow=0;fillStyle=solid;strokeColor=#000000;fontFamily=Consolas;fontSize=17;" parent="59" vertex="1">
                    <mxGeometry x="107" width="53" height="23" as="geometry">
                        <mxRectangle width="53" height="23" as="alternateBounds"/>
                    </mxGeometry>
                </mxCell>
                <mxCell id="63" value="" style="shape=tableRow;horizontal=0;startSize=0;swimlaneHead=0;swimlaneBody=0;top=0;left=0;bottom=0;right=0;collapsible=0;dropTarget=0;fillColor=none;points=[[0,0.5],[1,0.5]];portConstraint=eastwest;shadow=0;fillStyle=solid;strokeColor=#000000;fontFamily=Consolas;fontSize=17;" parent="58" vertex="1">
                    <mxGeometry y="53" width="160" height="24" as="geometry"/>
                </mxCell>
                <mxCell id="64" value="" style="shape=partialRectangle;html=1;whiteSpace=wrap;connectable=0;fillColor=none;top=0;left=0;bottom=0;right=0;overflow=hidden;shadow=0;fillStyle=solid;strokeColor=#000000;fontFamily=Consolas;fontSize=17;" parent="63" vertex="1">
                    <mxGeometry width="53" height="24" as="geometry">
                        <mxRectangle width="53" height="24" as="alternateBounds"/>
                    </mxGeometry>
                </mxCell>
                <mxCell id="65" value="" style="shape=partialRectangle;html=1;whiteSpace=wrap;connectable=0;fillColor=none;top=0;left=0;bottom=0;right=0;overflow=hidden;shadow=0;fillStyle=solid;strokeColor=#000000;fontFamily=Consolas;fontSize=17;" parent="63" vertex="1">
                    <mxGeometry x="53" width="54" height="24" as="geometry">
                        <mxRectangle width="54" height="24" as="alternateBounds"/>
                    </mxGeometry>
                </mxCell>
                <mxCell id="66" value="" style="shape=partialRectangle;html=1;whiteSpace=wrap;connectable=0;fillColor=none;top=0;left=0;bottom=0;right=0;overflow=hidden;shadow=0;fillStyle=solid;strokeColor=#000000;fontFamily=Consolas;fontSize=17;" parent="63" vertex="1">
                    <mxGeometry x="107" width="53" height="24" as="geometry">
                        <mxRectangle width="53" height="24" as="alternateBounds"/>
                    </mxGeometry>
                </mxCell>
                <mxCell id="67" value="" style="shape=tableRow;horizontal=0;startSize=0;swimlaneHead=0;swimlaneBody=0;top=0;left=0;bottom=0;right=0;collapsible=0;dropTarget=0;fillColor=none;points=[[0,0.5],[1,0.5]];portConstraint=eastwest;shadow=0;fillStyle=solid;strokeColor=#000000;fontFamily=Consolas;fontSize=17;" parent="58" vertex="1">
                    <mxGeometry y="77" width="160" height="23" as="geometry"/>
                </mxCell>
                <mxCell id="68" value="" style="shape=partialRectangle;html=1;whiteSpace=wrap;connectable=0;fillColor=none;top=0;left=0;bottom=0;right=0;overflow=hidden;shadow=0;fillStyle=solid;strokeColor=#000000;fontFamily=Consolas;fontSize=17;" parent="67" vertex="1">
                    <mxGeometry width="53" height="23" as="geometry">
                        <mxRectangle width="53" height="23" as="alternateBounds"/>
                    </mxGeometry>
                </mxCell>
                <mxCell id="69" value="" style="shape=partialRectangle;html=1;whiteSpace=wrap;connectable=0;fillColor=none;top=0;left=0;bottom=0;right=0;overflow=hidden;shadow=0;fillStyle=solid;strokeColor=#000000;fontFamily=Consolas;fontSize=17;" parent="67" vertex="1">
                    <mxGeometry x="53" width="54" height="23" as="geometry">
                        <mxRectangle width="54" height="23" as="alternateBounds"/>
                    </mxGeometry>
                </mxCell>
                <mxCell id="70" value="" style="shape=partialRectangle;html=1;whiteSpace=wrap;connectable=0;fillColor=none;top=0;left=0;bottom=0;right=0;overflow=hidden;shadow=0;fillStyle=solid;strokeColor=#000000;fontFamily=Consolas;fontSize=17;" parent="67" vertex="1">
                    <mxGeometry x="107" width="53" height="23" as="geometry">
                        <mxRectangle width="53" height="23" as="alternateBounds"/>
                    </mxGeometry>
                </mxCell>
                <mxCell id="71" value="Columns" style="swimlane;fontStyle=0;childLayout=stackLayout;horizontal=1;startSize=30;horizontalStack=0;resizeParent=1;resizeParentMax=0;resizeLast=0;collapsible=1;marginBottom=0;whiteSpace=wrap;html=1;shadow=0;fillStyle=solid;strokeColor=#000000;fontFamily=Consolas;fontSize=17;fillColor=#A32A77;" parent="1" vertex="1">
                    <mxGeometry x="1170" y="450" width="230" height="300" as="geometry"/>
                </mxCell>
                <mxCell id="72" value="id: INTEGER PK" style="text;strokeColor=none;fillColor=default;align=left;verticalAlign=middle;spacingLeft=4;spacingRight=4;overflow=hidden;points=[[0,0.5],[1,0.5]];portConstraint=eastwest;rotatable=0;whiteSpace=wrap;html=1;shadow=0;fillStyle=solid;fontFamily=Consolas;fontSize=17;" parent="71" vertex="1">
                    <mxGeometry y="30" width="230" height="30" as="geometry"/>
                </mxCell>
                <mxCell id="73" value="packet: BLOB" style="text;strokeColor=none;fillColor=default;align=left;verticalAlign=middle;spacingLeft=4;spacingRight=4;overflow=hidden;points=[[0,0.5],[1,0.5]];portConstraint=eastwest;rotatable=0;whiteSpace=wrap;html=1;shadow=0;fillStyle=solid;fontFamily=Consolas;fontSize=17;" parent="71" vertex="1">
                    <mxGeometry y="60" width="230" height="30" as="geometry"/>
                </mxCell>
                <mxCell id="74" value="proto: TEXT" style="text;strokeColor=none;fillColor=default;align=left;verticalAlign=middle;spacingLeft=4;spacingRight=4;overflow=hidden;points=[[0,0.5],[1,0.5]];portConstraint=eastwest;rotatable=0;whiteSpace=wrap;html=1;shadow=0;fillStyle=solid;fontFamily=Consolas;fontSize=17;" parent="71" vertex="1">
                    <mxGeometry y="90" width="230" height="30" as="geometry"/>
                </mxCell>
                <mxCell id="75" value="src: TEXT" style="text;strokeColor=none;fillColor=default;align=left;verticalAlign=middle;spacingLeft=4;spacingRight=4;overflow=hidden;points=[[0,0.5],[1,0.5]];portConstraint=eastwest;rotatable=0;whiteSpace=wrap;html=1;shadow=0;fillStyle=solid;fontFamily=Consolas;fontSize=17;" parent="71" vertex="1">
                    <mxGeometry y="120" width="230" height="30" as="geometry"/>
                </mxCell>
                <mxCell id="76" value="dst: TEXT" style="text;strokeColor=none;fillColor=default;align=left;verticalAlign=middle;spacingLeft=4;spacingRight=4;overflow=hidden;points=[[0,0.5],[1,0.5]];portConstraint=eastwest;rotatable=0;whiteSpace=wrap;html=1;shadow=0;fillStyle=solid;fontFamily=Consolas;fontSize=17;" parent="71" vertex="1">
                    <mxGeometry y="150" width="230" height="30" as="geometry"/>
                </mxCell>
                <mxCell id="77" value="ttl: INTEGER" style="text;strokeColor=none;fillColor=default;align=left;verticalAlign=middle;spacingLeft=4;spacingRight=4;overflow=hidden;points=[[0,0.5],[1,0.5]];portConstraint=eastwest;rotatable=0;whiteSpace=wrap;html=1;shadow=0;fillStyle=solid;fontFamily=Consolas;fontSize=17;" parent="71" vertex="1">
                    <mxGeometry y="180" width="230" height="30" as="geometry"/>
                </mxCell>
                <mxCell id="78" value="flags: TEXT" style="text;strokeColor=none;fillColor=default;align=left;verticalAlign=middle;spacingLeft=4;spacingRight=4;overflow=hidden;points=[[0,0.5],[1,0.5]];portConstraint=eastwest;rotatable=0;whiteSpace=wrap;html=1;shadow=0;fillStyle=solid;fontFamily=Consolas;fontSize=17;" parent="71" vertex="1">
                    <mxGeometry y="210" width="230" height="30" as="geometry"/>
                </mxCell>
                <mxCell id="79" value="options: BLOB" style="text;strokeColor=none;fillColor=default;align=left;verticalAlign=middle;spacingLeft=4;spacingRight=4;overflow=hidden;points=[[0,0.5],[1,0.5]];portConstraint=eastwest;rotatable=0;whiteSpace=wrap;html=1;shadow=0;fillStyle=solid;fontFamily=Consolas;fontSize=17;" parent="71" vertex="1">
                    <mxGeometry y="240" width="230" height="30" as="geometry"/>
                </mxCell>
                <mxCell id="80" value="timestamp: INTEGER" style="text;strokeColor=none;fillColor=default;align=left;verticalAlign=middle;spacingLeft=4;spacingRight=4;overflow=hidden;points=[[0,0.5],[1,0.5]];portConstraint=eastwest;rotatable=0;whiteSpace=wrap;html=1;shadow=0;fillStyle=solid;fontFamily=Consolas;fontSize=17;" parent="71" vertex="1">
                    <mxGeometry y="270" width="230" height="30" as="geometry"/>
                </mxCell>
                <mxCell id="82" value="" style="shape=flexArrow;endArrow=classic;html=1;fontFamily=Consolas;fontSize=17;entryX=0.5;entryY=1;entryDx=0;entryDy=0;exitX=0.5;exitY=0;exitDx=0;exitDy=0;" parent="1" source="83" target="33" edge="1">
                    <mxGeometry width="50" height="50" relative="1" as="geometry">
                        <mxPoint x="106" y="986" as="sourcePoint"/>
                        <mxPoint x="161" y="956" as="targetPoint"/>
                    </mxGeometry>
                </mxCell>
                <mxCell id="83" value="&lt;font style=&quot;background-color: rgb(255, 255, 255);&quot; color=&quot;#000000&quot;&gt;Network Card&lt;/font&gt;" style="sketch=0;aspect=fixed;pointerEvents=1;shadow=0;dashed=0;html=1;strokeColor=#d6b656;labelPosition=center;verticalLabelPosition=bottom;verticalAlign=top;align=center;fillColor=#FFC338;shape=mxgraph.mscae.enterprise.network_card;fontFamily=Consolas;fontSize=17;fillStyle=solid;" parent="1" vertex="1">
                    <mxGeometry x="17.2" y="986" width="177.6" height="74" as="geometry"/>
                </mxCell>
                <mxCell id="84" value="" style="shape=image;verticalLabelPosition=bottom;labelBackgroundColor=default;verticalAlign=top;aspect=fixed;imageAspect=0;image=https://cdn.kastatic.org/ka-perseus-images/337190cba133e19ee9d8b5878453f915971a59cd.svg;" parent="1" vertex="1">
                    <mxGeometry x="980" y="47.5" width="520" height="343" as="geometry"/>
                </mxCell>
                <mxCell id="87" value="" style="shape=curlyBracket;whiteSpace=wrap;html=1;rounded=1;flipH=1;labelPosition=right;verticalLabelPosition=middle;align=left;verticalAlign=middle;shadow=0;labelBackgroundColor=#FFFFFF;fillStyle=solid;fontFamily=Consolas;fontSize=21;" parent="1" vertex="1">
                    <mxGeometry x="1400" y="540" width="30" height="181" as="geometry"/>
                </mxCell>
                <mxCell id="88" value="" style="endArrow=classic;html=1;fontFamily=Consolas;fontSize=21;fontColor=#ffffff;exitX=0.1;exitY=0.5;exitDx=0;exitDy=0;exitPerimeter=0;entryX=1;entryY=0.5;entryDx=0;entryDy=0;edgeStyle=orthogonalEdgeStyle;curved=1;" parent="1" source="87" target="90" edge="1">
                    <mxGeometry width="50" height="50" relative="1" as="geometry">
                        <mxPoint x="1450" y="600" as="sourcePoint"/>
                        <mxPoint x="1500" y="550" as="targetPoint"/>
                        <Array as="points">
                            <mxPoint x="1650" y="630"/>
                            <mxPoint x="1650" y="218"/>
                        </Array>
                    </mxGeometry>
                </mxCell>
            </root>
        </mxGraphModel>
    </diagram>
</mxfile>
